<svg width="26" height="26" viewBox="0 0 26 26" fill="none" xmlns="http://www.w3.org/2000/svg">
<path d="M23.4121 17.205C22.6699 18.9602 21.5091 20.5069 20.031 21.7098C18.5529 22.9128 16.8027 23.7353 14.9333 24.1056C13.0639 24.4758 11.1323 24.3825 9.30731 23.8338C7.48232 23.285 5.81953 22.2976 4.46433 20.9578C3.10912 19.6179 2.10275 17.9665 1.53321 16.1479C0.963669 14.3293 0.848292 12.3989 1.19717 10.5254C1.54604 8.6519 2.34855 6.89239 3.53452 5.40069C4.7205 3.90899 6.25383 2.73053 8.00047 1.96832" stroke="#B9B9B9" stroke-width="2" stroke-linecap="round" stroke-linejoin="round"/>
<path d="M24.3337 12.6667C24.3337 11.1346 24.0319 9.61749 23.4456 8.20203C22.8593 6.78656 21.9999 5.50044 20.9166 4.41709C19.8332 3.33374 18.5471 2.47438 17.1316 1.88807C15.7162 1.30177 14.1991 1 12.667 1V12.6667H24.3337Z" stroke="#B9B9B9" stroke-width="2" stroke-linecap="round" stroke-linejoin="round"/>
</svg>
