<svg width="24" height="26" viewBox="0 0 24 26" fill="none" xmlns="http://www.w3.org/2000/svg">
<path d="M19.125 8C19.125 6.14348 18.3612 4.36301 17.0015 3.05025C15.6419 1.7375 13.7978 1 11.875 1C9.95218 1 8.10812 1.7375 6.74848 3.05025C5.38884 4.36301 4.625 6.14348 4.625 8C4.625 16.1667 1 18.5 1 18.5H22.75C22.75 18.5 19.125 16.1667 19.125 8Z" stroke="#B9B9B9" stroke-width="2" stroke-linecap="round" stroke-linejoin="round"/>
<path d="M13.9655 23.1667C13.7531 23.5203 13.4481 23.8138 13.0813 24.0178C12.7144 24.2218 12.2985 24.3292 11.8751 24.3292C11.4517 24.3292 11.0358 24.2218 10.6689 24.0178C10.302 23.8138 9.99711 23.5203 9.78467 23.1667" stroke="#B9B9B9" stroke-width="2" stroke-linecap="round" stroke-linejoin="round"/>
</svg>
